<?xml version="1.0" encoding="utf-8"?>
<!-- Generator: Adobe Illustrator 20.1.0, SVG Export Plug-In . SVG Version: 6.00 Build 0)  -->
<svg version="1.1" id="Capa_1" xmlns="http://www.w3.org/2000/svg" xmlns:xlink="http://www.w3.org/1999/xlink" x="0px" y="0px"
	 viewBox="0 0 217.5 64.8" style="enable-background:new 0 0 217.5 64.8;" xml:space="preserve">
<style type="text/css">
	.st0{fill:#485DA1;}
</style>
<g>
	<g>
		<path class="st0" d="M13.7,3.3c0,0.2,0,0.4-0.1,0.6c-0.2,0.3-0.1,0.6-0.1,0.9c0,0.1,0,0.3,0,0.4c0.3,0.6,0.4,1.3,1,1.8
			C15,8,15,9.2,15.1,10.3c-0.1,1,0,1.9-0.1,2.9c-0.1,1.4-0.4,2.7-0.3,4.1c0.1,0.4-0.3,0.4-0.4,0.6c-0.5,0.7-0.4,1.4-0.2,2.2
			c0.4,0.2,0,0.4,0,0.6c-0.7,0.4-0.4,0.9-0.3,1.5c0.1,0.4,0.2,0.9,0.3,1.3c-0.1,0.6,0,1.1,0.2,1.6c0.2,0.2,0.2,0.5,0.1,0.8
			c-0.1,0.7,0,1.5-0.1,2.2c0,0.8,0,1.5,0,2.3c0.2,0.5,0,1,0.2,1.4c0,0.2,0,0.3,0,0.5c0,1.9-0.1,3.7,0,5.6c0,0.2,0,0.4-0.1,0.6
			c-0.2,0.7-0.1,1.3-0.1,2c0,0.5,0.1,0.9-0.1,1.3c-0.2,0.4-0.1,0.8-0.1,1.2c-0.1,0.2-0.1,0.5-0.2,0.7c-0.2,0.6-0.3,1.1-0.3,1.7
			c0,0.4,0,0.9-0.2,1.3c-0.2,0.6-0.2,1.2,0,1.8c0.2,0.5,0.2,1.1,0.3,1.7c-0.1,0.8-0.1,1.6,0,2.4c-0.1,0.2-0.1,0.4-0.2,0.6
			c-0.3,0.2-0.3,0.6-0.4,0.8c-0.1,1.2-0.2,2.4,0,3.6c0.2,0.6-0.2,1.1-0.3,1.6c-0.1,0.2-0.2,0.5-0.2,0.7c-0.2,0.3-0.1,0.7-0.5,0.8
			c-0.4,0.1-0.8-0.4-1.1,0c0,0-0.1,0.1-0.2,0.1c-0.4,0.1-0.7,0.3-1,0.7c-0.6,0.4-1.1,0.9-1.8,1.2c-0.3,0.1-0.5,0.2-0.7,0.5
			c-0.1,0.1-0.2,0.1-0.3,0.2l0,0c-0.8,0.6-1.6,1.1-2.7,1.2c-0.3-0.2-0.6,0-1,0.1c-0.3,0.1-0.7,0.3-0.9-0.2C2.6,64,3,64,3.3,63.9
			c0.1,0,0.2,0,0.2-0.1c-0.4,0.1-0.7,0.1-1-0.2c-0.5-0.5-0.3-1.2-0.6-1.7c0-1,0-2,0-2.9c0.4-0.5,0.1-1.1,0.2-1.6c0.1-1,0-1.9,0-2.9
			c0-3.1,0-6.1,0-9.2c0-0.4,0-0.8-0.1-1.2c0-0.7-0.3-1.4,0.2-2.1c0.3,0,0.2,0.2,0.2,0.3c-0.1-0.7-0.2-1.6-0.1-2.5
			c0.2-0.9,0.2-1.8,0-2.6c0-1,0.2-2,0.1-3c0-0.2,0.1-0.5,0.3-0.6c0.3,0,0.2,0.2,0.2,0.3c-0.3-0.8,0-1.8-0.3-2.8
			c-0.1-0.3-0.1-0.6-0.1-0.9c0-0.3,0.1-0.6,0.2-0.8C3.2,28.1,3,27,3.1,25.8c0-0.3,0-0.5,0.1-0.8c0.2-0.3,0.3-0.6,0.2-0.9
			c-0.4-1.7,0.1-3.3,0-5c0-0.5,0.1-1-0.1-1.5c0-0.3-0.1-0.6,0.2-0.8c0-0.1,0.3,0.2,0.2-0.1c-0.1-0.4-0.1-0.8-0.2-1.2
			c0-0.3,0-0.5,0.2-0.7c0-0.1,0.3,0.2,0.2-0.1c-0.1-0.3-0.1-0.6-0.2-0.9c0.1-0.6,0-1.2,0.3-1.7c0-0.1,0.2,0.1,0.2-0.1
			c0-0.3-0.1-0.6-0.2-0.9c0.1-0.5,0-1.1,0.3-1.6c0-0.1,0.2,0.1,0.2-0.1c0-0.3-0.1-0.7-0.1-1c0-0.2,0-0.3,0.1-0.4
			c0.3-0.3,0-0.5,0-0.8C4.6,7,4.7,6.7,4.8,6.5C5,6.2,4.9,5.8,5,5.4c0.1-1.5,0.4-3-0.3-4.4C4.4,0.8,4.1,0.5,4.3,0C5.1,0,6,0,6.9,0
			c0.8,0.6,1.7,0.3,2.5,0.6c1.1,0.2,2.1,0.4,3,1.1c0.1,0.4,0.5,0.5,0.8,0.7c0.1,0,0.1,0,0.2,0C13.6,2.7,13.6,3,13.7,3.3z"/>
		<path class="st0" d="M1.9,41.3c0.3,1.5,0.3,2.9,0,4.4C1.9,44.2,1.9,42.8,1.9,41.3z"/>
		<path class="st0" d="M37.7,59.7c-0.6,0.4-1.3,0.7-1.9,1.1c-0.3,0.3-0.5,0.8-1.1,0.6c-0.4-0.8-1.1-0.7-1.8-0.7
			c-0.6,0-1.2,0.2-1.8-0.2c-0.2-0.1-0.1,0.1-0.2,0.2c-0.4,0.2-0.6,0.1-0.9-0.2c-0.3-0.5-0.3-1.1-0.3-1.7c0.1-0.5,0.2-1-0.1-1.5
			c-0.2-1.5-0.2-3,0-4.5c0.2,0.1,0.1,0.3,0.1,0.5c0,0.1,0.2,0,0.1,0c-0.1,0-0.1,0-0.1-0.1c0-0.1,0-0.3,0.1-0.4
			c0.2-1.4,0.1-2.8,0.1-4.2c0-0.6,0-1.2,0.2-1.8c0.2-0.5,0-0.9-0.4-1.2c-0.1-0.5,0-0.9-0.1-1.4c0.6-0.4,0.6-0.9,0.4-1.6
			c-0.3-0.9,0-1.8,0.1-2.6c0-0.3,0.1-0.7,0-1c0-0.2,0-0.5,0-0.7c0.1-0.5,0-1,0.1-1.5c0-0.2,0-0.5,0-0.7c0.1-0.3,0.1-0.6,0.3-0.8
			c0.1,0,0.2,0,0.3,0.1c0.1,1.4,0,2.7,0.1,3.8c0.1-2.1-0.2-4.5-0.2-6.9c0.1-0.5-0.2-1.1,0.4-1.4c0.1,0.2,0.1,0.4,0.1,0.4
			c-0.5-2.2,0.1-4.7,0-7.1c0-0.1-0.2,0-0.1,0c0,0,0.1,0,0.1,0.1c-0.1,0.8,0.1,1.5-0.1,2.3c-0.5,0.2-0.7,0-0.7-0.5c0-0.3,0-0.6,0-1
			c-0.1-0.8,0.2-1.5,0-2.3c0.1-0.8,0.1-1.5,0.2-2.3c0-0.6-0.2-1.1-0.6-1.6c-0.2-0.4,0.2-0.6,0.4-0.9c1-0.6,1.9-0.8,3-0.1
			c0.3,0.2,0.7,0,0.9,0.3c0.9,0.3,1.9,0.6,2.9,0.6c1.6,0.5,3.2,1,4.7,1.8c0.1,0.5,0.5,0.2,0.8,0.4c0.6,0,0.7,0.4,0.9,0.9
			c0.1,0.4,0.3,0.7,0.4,1.1c0.5,1,0.3,2.2,0.8,3.2c0,0.1,0.1,0.1,0.1,0.2c-0.1,1.3-0.1,2.7,0,4c-0.1,0.7-0.2,1.4-0.5,2.1
			c-0.2,1.8-0.1,3.5,0,5.3c0,0.5,0.1,0.9-0.1,1.3c-0.2,0.5-0.1,1.1-0.1,1.6c0,0.3,0,0.7-0.1,1c-0.3,0.5,0,1.1-0.2,1.6
			c-0.2,1.3-0.3,2.6-0.3,3.9c0,1.3,0,2.6,0,3.9c0,0.2-0.1,0.4,0.1,0.5c0.2,0.2,0.1,0.4,0.1,0.6c-0.1,0.4,0,0.8-0.1,1.2
			c-0.4,0.8-0.4,1.7-0.4,2.6c0,0.2,0,0.5,0,0.7c-0.2,0.9-0.9,1.1-1.7,1.1c-0.3,0.1-0.5,0.4-0.8,0.5c-0.5,0.6-1.5,0.3-2,1
			C38.4,59.4,38,59.4,37.7,59.7z"/>
		<path class="st0" d="M19,60.1c-0.3-1.8-0.2-3.6-0.3-5.4c-0.1-1.4-0.2-2.7,0.1-4.1c0.2-1.1,0.1-2.3,0.1-3.5c0-1,0-2,0.1-3
			c0.2-1.2,0.1-2.5,0-3.7c0-0.9-0.1-1.8,0.1-2.6c0.3,0.5,0,1,0.1,1.3c-0.1-1.4,0.1-2.9-0.1-4.4c0-0.6-0.1-1.2,0.1-1.7
			c0,0,0.1,0,0.1,0.1c0,0.1,0.1,0.1,0.1,0c0-0.8,0-1.7,0-2.5c0-0.4-0.1-0.8,0.1-1.2l0,0c0.1-0.1,0.1-0.1,0.2-0.2
			c0.3-1.4,0.2-2.8,0.2-4.3c0.1-0.6,0.1-1.2,0.1-1.9c0.2-1,0.4-2,0.3-3c0-0.1,0.1-0.3,0.1-0.4c0.2,0.1,0.1-0.2,0.3-0.2
			c0.2-0.4,0.3-0.7-0.1-1c-0.3,0-0.2-0.3-0.3-0.4c-0.2-0.5,0.2-0.4,0.5-0.4c0.7,0.1,1.3,0.3,2,0.6c0.5,0.3,1,0.3,1.5,0.3
			c0.4,0.2,0.7,0.5,0.6,1c0.1,0.6,0.4,1.1,0.4,1.7c0.3,1.8,0.2,3.5,0.4,5.3c0,0.5,0,0.9,0,1.4c0.1,0.5,0,1,0.2,1.4
			c0.1,0.2,0.1,0.4,0.1,0.6c-0.1,0.9-0.1,1.7,0.2,2.5c0.2,0.2,0.1,0.4,0.1,0.6c-0.1,0.3-0.2,0.6,0.1,0.9c0.2,0.2,0.1,0.5,0.1,0.8
			c-0.1,0.4,0,0.9-0.1,1.3c-0.2,1.2-0.2,2.4,0,3.6c0.2,0.3-0.1,0.8,0.2,1.1c0.1,0.2,0.1,0.4,0.1,0.6c-0.1,0.5-0.1,1.1,0,1.6
			c0,0.2-0.1,0.4-0.2,0.6c-0.3,0.7-0.8,1.4-0.9,2.2c-0.4,1,0.2,1.9,0.3,2.9c0,0.3,0,0.5-0.1,0.8c-0.2,0.2-0.1,0.5-0.1,0.7
			c-0.2,1-0.4,2-0.4,3c-0.1,0.5-0.1,1,0,1.5c-0.1,0.2-0.2,0.4-0.3,0.6c0.2,1.4,0.2,2.8-0.1,4.2c0,0.7,0.1,1.5-0.1,2.2
			c-0.9,1.2-3.8,2.2-5.2,1.8c-0.3-0.1-0.3-0.3-0.4-0.5c0-0.4-0.1-0.7-0.1-1.1C19.1,61.2,19.2,60.6,19,60.1z"/>
		<path class="st0" d="M54,58.9c-0.2,0-0.3,0-0.4-0.1c-0.5-0.3-1.1-0.2-1.6-0.1c-1,0-1.6-0.4-2-1.2c-0.2-0.8,0.2-1.6-0.1-2.4
			c0-0.4,0-0.8,0-1.3c0.1-1.2,0-2.5,0.1-3.7c-0.2-2.9-0.1-5.8,0-8.7c0-1.6,0.1-3.1-0.1-4.7c0.1-2.4,0-4.8,0.3-7.2
			c0.2-1.5,0-2.9,0.1-4.4c0.1-0.4-0.1-0.7-0.2-1c0-0.1-0.1-0.2-0.1-0.2c-0.2-0.3-0.4-0.6-0.1-0.9c0.3-0.3,0.6-0.2,0.9-0.2
			c0.9,0.2,1.9,0.3,2.7,0.8c0.4,0.2,0.4,0.8,0.7,1.1c0.2,0.1,0,0.4,0.2,0.6c0.1,0.7,0.1,1.4,0.2,2c-0.1,1.4-0.1,2.8,0,4.2
			c0.1,0.3,0.2,0.6,0.2,0.9c0.2,0.2,0.3,0.4,0.4,0.6c0.1,0.8,0.2,1.6,0.3,2.4c0.1,0.7,0,1.3,0.1,2c0,0.3,0.1,0.6-0.1,0.9
			c0,0,0,0.1,0,0.1c0,0.1-0.1,0.1-0.1,0.1c-0.1,0.4-0.1,0.8-0.1,1.2l0.1,0c0.2,0.3,0.2,0.6,0,0.9c-0.1,0.1-0.2-0.1-0.2,0
			c0.2,0.6-0.1,1.2,0.1,1.8c0.1,1.3-0.1,2.5,0.3,3.8c0.1,1.3,0.3,2.6,0,3.9c-0.1,1.8-0.4,3.7,0.2,5.5c0.8,1.1-0.2,1.6-0.8,2.2
			C55.1,58.5,54.4,58.6,54,58.9z"/>
		<path class="st0" d="M64.2,42.8c0-1.5-0.1-3,0.1-4.4c0.2-0.2,0.1-0.5,0.1-0.7c0-2,0-4,0-6c0-0.2,0.1-0.5-0.1-0.7
			c-0.2-1-0.1-2-0.1-3c0.1-0.6,0.1-1.2,0-1.8c0-0.3-0.3-0.8,0.2-0.8c0.3-0.1,0.7,0.1,0.9,0.6c0.7,1.9,1,3.8,1,5.8
			c-0.1,1.7,0,3.5-0.1,5.2c0,1.9,0,3.9,0,5.8c-0.1,2.8-0.2,5.6-0.2,8.4c-0.1,1.3-0.2,2.6-0.2,3.9c0,0.4,0,0.8-0.1,1.2
			c-0.4,0.5-0.8,1.4-1.5,1.1c-0.6-0.2-0.3-1.1-0.3-1.7c0-2.1,0-4.1,0-6.2c0-0.3-0.1-0.6,0.1-0.8c0.3-0.8,0.1-1.6,0.1-2.3
			C64.3,45.1,64.4,43.9,64.2,42.8z"/>
		<path class="st0" d="M60.4,55.1c0,0.6-0.3,1.2-0.2,1.9c-0.1,0.2,0,0.4-0.2,0.6c-0.4,0-0.3-0.7-0.7-0.7c-0.2-0.1-0.1-0.3-0.2-0.4
			c0-0.6,0-1.2,0-1.9c0.1-1.5,0.2-2.9-0.1-4.4c-0.2-0.5-0.1-1-0.1-1.5c0.1-3.4,0-6.9-0.1-10.3c0-1.9,0-3.9,0-5.8c0-2.5,0-5.1,0-7.6
			c0-0.7,0.2-0.9,0.8-0.7c0.3,0,0.3,0.2,0.4,0.5c0.2,0.6,0.2,1.2,0.6,1.7c0.2,0.2,0.2,0.5,0.1,0.8c-0.1,1.5-0.1,3.1,0,4.6
			c0,0.9,0.1,1.8-0.1,2.6c-0.3-0.5,0-1-0.1-1.5c0,2.1,0,4.2,0,6.3c0,0.1-0.1,0,0,0.1c0.1,0.1,0-0.1,0.1-0.1c0.2,0.6,0.1,1.3,0.1,1.9
			c0,1.6,0,3.2,0.2,4.8c0.1,0.7,0,1.5,0.1,2.2C61,48.8,61,49.6,61,50.5c0,0.4,0,0.7-0.4,1c-0.1,0.1-0.1,0.1-0.2,0.2
			C60.3,52.8,60.4,53.9,60.4,55.1z"/>
		<path class="st0" d="M30.8,35.4c-0.1,0-0.1,0-0.2,0c-0.6-0.2-0.2-0.6-0.2-0.9c-0.1,0.4,0,0.8,0,1.2c-0.1,0.3,0.1,0.6-0.3,0.7
			c0-1.4-0.1-2.7,0.1-4.1c0.2,0.2,0.1,0.3,0.1,0.5c0-2.3,0-4.7,0-7c0-0.3-0.2-0.7,0.3-0.8c0.2,0.5-0.5,1.3,0.6,1.5
			c0.1,1.5,0.1,2.9,0,4.4c-0.4,0.5-0.1,1-0.2,1.5c-0.4,0.8,0,1.7-0.1,2.5C30.9,35.1,30.9,35.2,30.8,35.4z"/>
		<path class="st0" d="M60.7,44.2c0.7-0.2,0.2-0.9,0.5-1.2c-0.1,0.7,0.5,1.4-0.1,2.1c0,0.1,0,0.2,0,0.3c0.2,1.4-0.3,2.7-0.2,4
			c0.1,0.7,0.6,1.4,0,2.4c-0.4-1.1,0.1-2.1-0.4-3.1c-0.2-0.2-0.2-0.6-0.2-0.9c0.1-0.9,0.1-1.9,0.1-2.8
			C60.5,44.7,60.5,44.4,60.7,44.2z"/>
		<path class="st0" d="M50.2,41.3c0,2.9,0,5.9,0,8.8c-0.1,0.1-0.1,0.1-0.2,0c-0.3-2.9-0.2-5.9,0-8.8C50,41.2,50.1,41.2,50.2,41.3z"
			/>
		<path class="st0" d="M30.3,39.1c0.6,0.7,0.1,1.4,0.1,2.2c0,0.6-0.2,1.1,0.2,1.7c0.4,0.7,0.1,1.2-0.6,1.3c-0.1,0.1-0.2,0.1-0.3,0
			c0-0.1,0-0.1,0-0.2c0.4-0.4,0.2-0.8,0.2-1.3c0.1-1,0.2-2,0.2-3C30.3,39.7,30,39.3,30.3,39.1z"/>
		<path class="st0" d="M61.4,44.2c0.1,1.5-0.2,2.9-0.2,4.4c-0.1,0.9,0.2,1.7-0.2,2.6c-0.3-1.1,0-2.2-0.1-3.3c0-1.4,0-2.7-0.2-4.1
			c0-0.7-0.1-1.5,0.1-2.2C61.3,42.5,61.1,43.4,61.4,44.2z"/>
		<path class="st0" d="M66,51.2c0-2.8-0.1-5.7,0.2-8.5c0.1-0.1,0.1-0.1,0.2,0c-0.1,3.5-0.1,7-0.2,10.6c0,0.1-0.1,0.2-0.1,0.3
			C65.9,52.9,65.9,52,66,51.2z"/>
		<path class="st0" d="M25.8,29.9c0-0.1,0-0.3-0.1-0.4c-0.2-0.5-0.1-1-0.1-1.5c0-0.5,0-1,0-1.5c0-1.4-0.3-2.8,0-4.2
			c0.4-0.2,0.4,0.2,0.5,0.4v0c-0.5,0.1-0.4,0.4-0.3,0.7c0.2,1.2,0.2,2.5,0.2,3.7c0,1.4,0.1,2.7,0.1,4.1
			C25.5,30.8,25.9,30.3,25.8,29.9z"/>
		<path class="st0" d="M55.7,46.3c-0.5-0.9-0.6-1.8-0.4-2.8c0.1-0.4,0-0.7,0-1.1c-0.1-0.5-0.2-1.1,0.1-1.6c0.2-0.3,0.1-0.7,0.2-1
			c0.6,0.4,0.4,1,0.2,1.3c-0.4,0.6-0.4,1.2-0.2,1.7c0.3,1-0.1,2.1,0.4,3.1C55.9,46,55.8,46.1,55.7,46.3z"/>
		<path class="st0" d="M59,38.3c0.2,0.2,0.2,0.4,0.2,0.7c0,3,0,6.1,0,9.1c0,0.2-0.1,0.3-0.1,0.5c-0.1-2.9-0.1-5.9-0.2-8.8
			C59,39.3,58.8,38.8,59,38.3z"/>
		<path class="st0" d="M30.6,25.1c-0.3,0.3-0.2,0.6-0.2,1c0,2.6,0,5.1-0.1,7.7c0-0.4,0-0.9-0.1-1.3c0-3.2-0.2-6.4,0.2-9.5
			C30.8,23.6,30.5,24.3,30.6,25.1z"/>
		<path class="st0" d="M55.7,38.3c0-0.3,0-0.6,0-0.9c-0.1-0.6,0-1.3-0.1-1.9c-0.2-0.8-0.2-1.7-0.5-2.5c0-0.2-0.1-0.4-0.1-0.6
			c0.5,0,0.9,0,0.7,0.8c-0.1,0.5,0.3,0.5,0.7,0.3c-0.9,0.8-0.4,1.7-0.4,2.6C55.9,36.8,56,37.6,55.7,38.3z"/>
		<path class="st0" d="M20.1,25.1c0,1.2,0.2,2.4,0,3.6c0,0.3,0.1,0.7-0.4,0.8c-0.2-0.5,0-1-0.2-1.5c0.1-1.2,0.1-2.4,0.3-3.6
			C20.1,24.6,19.9,24.9,20.1,25.1z"/>
		<path class="st0" d="M59.7,24.2c-0.6,0-0.8,0.2-0.7,0.8c0,2.5,0,4.9,0,7.4c-0.1,0.1-0.1,0.1-0.2,0c0-2.9,0-5.8,0-8.8
			C59.2,23.8,59.5,24,59.7,24.2z"/>
		<path class="st0" d="M53.7,23.6c-0.3,0.2-0.6,0.1-0.8-0.1c-0.6-0.7-1.6-0.1-2.3-0.6c-0.1-0.1-0.4,0-0.6,0.2
			c-0.3,0.4,0.2,0.6,0.3,0.9c0,0.1-0.1,0.1-0.2,0.2c-0.1-0.4-0.8-0.6-0.5-1.1c0.2-0.4,0.6-0.6,1.1-0.4c0.4,0.1,0.8,0.1,1.2,0.2
			c0.2,0,0.4,0.1,0.6,0.1c0.2,0,0.5,0.1,0.6,0.3C53.3,23.3,53.5,23.5,53.7,23.6z"/>
		<path class="st0" d="M60.7,39c0,0.2,0,0.4-0.1,0.6c0-2.3-0.4-4.7,0.1-7c0,0.6,0,1.1,0,1.7C60.7,35.9,60.7,37.5,60.7,39z"/>
		<path class="st0" d="M25.5,22.3c0,1.4,0.2,2.8,0.1,4.2c0,0.1-0.1,0.1-0.1,0c-0.4-0.5-0.1-1-0.2-1.5c-0.1-1.1,0.1-2.2-0.2-3.3
			c-0.1-0.2,0-0.4,0.1-0.6C25.3,21.6,25.4,21.9,25.5,22.3z"/>
		<path class="st0" d="M58.8,32.4c0.1,0,0.1,0,0.2,0c0,2,0,3.9,0,5.9c-0.1,0.5,0.2,1-0.2,1.5C58.8,37.3,58.8,34.9,58.8,32.4z"/>
		<path class="st0" d="M64.3,31c0.3,0.2,0.2,0.4,0.2,0.7c0,2,0,4,0,6.1c0,0.2,0,0.5-0.2,0.7C64.3,35.9,64.3,33.4,64.3,31z"/>
		<path class="st0" d="M14.7,17.3c-0.3-1.4,0.1-2.7,0.2-4c0.1-0.1,0.1-0.1,0.2,0C15.1,14.6,14.9,16,14.7,17.3z"/>
		<path class="st0" d="M64.2,42.8c0.3,1.3,0.1,2.6,0.1,3.9c0,0.7,0.3,1.4-0.2,2C64.2,46.7,64.2,44.7,64.2,42.8z"/>
		<path class="st0" d="M66.4,42.8c-0.1,0-0.1,0-0.2,0c0-2,0-3.9,0-5.9c0.1-0.1,0.1-0.1,0.2,0C66.4,38.8,66.4,40.8,66.4,42.8z"/>
		<path class="st0" d="M14.6,37.8c-0.3-1.1-0.1-2.2-0.1-3.2c0-0.8,0-1.6,0-2.5c0.1-0.1,0.1-0.1,0.2,0C14.7,34,14.7,35.9,14.6,37.8z"
			/>
		<path class="st0" d="M44.2,37.8c-0.3-0.9-0.1-1.9-0.1-2.9c0-0.8,0-1.6,0-2.4c0,0,0,0,0.1,0c0,0,0.1,0,0.1,0
			C44.3,34.2,44.2,36,44.2,37.8z"/>
		<path class="st0" d="M66.4,36.9c-0.1,0-0.1,0-0.2,0c0-1.4,0-2.8,0-4.3c0-0.3-0.1-0.6,0.1-0.9C66.4,33.4,66.4,35.1,66.4,36.9z"/>
		<path class="st0" d="M24.8,19.5c-0.3-0.3-0.3-0.7-0.7-0.9c0-0.1,0-0.2,0-0.2c0.3,0.1,0.5-0.5,0.9,0c0.3,0.4,0.3,0.7,0.2,1.1
			C25.2,19.7,25,19.5,24.8,19.5z"/>
		<path class="st0" d="M26.2,39.8c-0.3-1.3-0.3-2.6,0-3.9c0.1,0,0.1,0.1,0.2,0.2c-0.1,1.2-0.2,2.5,0,3.7
			C26.3,39.9,26.3,39.9,26.2,39.8z"/>
		<path class="st0" d="M60.8,31.7c-0.3-0.7-0.1-1.5-0.1-2.2c-0.1-0.6,0.1-1.3-0.1-1.9c-0.1-0.3,0-0.4,0.3-0.4
			C60.8,28.6,60.8,30.2,60.8,31.7z"/>
		<path class="st0" d="M43.4,47.2c0-1.4,0.1-2.7,0.4-4.1c0-0.1,0.1-0.1,0.1,0c-0.1,1.4-0.2,2.7-0.3,4.1
			C43.5,47.3,43.4,47.3,43.4,47.2z"/>
		<path class="st0" d="M44.7,26.2c-0.4-0.3-0.5-0.7-0.5-1.2c0-0.6-0.2-1.3-0.3-1.9C44.6,23.9,44.6,25.1,44.7,26.2z"/>
		<path class="st0" d="M19.2,34.8c0.3,1.6,0,3.2-0.1,4.8c0-0.6,0-1.1,0-1.7C19.2,36.9,19.2,35.9,19.2,34.8z"/>
		<path class="st0" d="M60.9,41.6c0,0.7,0,1.5,0,2.2c0.1,0.6,0.1,1.2,0,1.9c-0.3-1.6-0.3-3.2,0-4.8C60.8,41.2,60.9,41.4,60.9,41.6z"
			/>
		<path class="st0" d="M37.2,18.8c-1.1,0.3-2.1-0.3-3.1-0.5c0.1,0,0.2-0.1,0.2-0.1C35.4,18.2,36.3,18.7,37.2,18.8z"/>
		<path class="st0" d="M50.5,24.9c0,1.3,0,2.5,0,3.8c0,0.3,0.1,0.6-0.2,0.9c0-1.5,0-3.1,0-4.6C50.4,24.8,50.5,24.8,50.5,24.9z"/>
		<path class="st0" d="M50.2,41.3c-0.1,0-0.1,0-0.2,0c0-1.5,0-3.1,0-4.6C50.4,38.2,50.1,39.8,50.2,41.3z"/>
		<path class="st0" d="M44.8,30.4c-0.2-1.3-0.2-2.7,0-4C44.9,27.7,44.9,29.1,44.8,30.4z"/>
		<path class="st0" d="M30.3,39.1c0,0.3,0.1,0.6-0.3,0.7c0-1.1,0.1-2.2,0.1-3.3c0.2-0.2,0.1-0.5,0.1-0.7c0.3,0,0.3,0.1,0.2,0.4
			c0,0.2,0,0.5,0,0.7c-0.2,0.5,0.1,1-0.2,1.5C30.3,38.6,30.3,38.8,30.3,39.1z"/>
		<path class="st0" d="M54.8,31.5c-0.3-1.4-0.2-2.8,0-4.2C54.7,28.7,54.8,30.1,54.8,31.5z"/>
		<path class="st0" d="M20.4,20.1c0.3,1,0.2,2-0.2,2.9c-0.1,0-0.1-0.1-0.1-0.2C20.1,21.9,20.2,21,20.4,20.1z"/>
		<path class="st0" d="M19.1,40.6c0.2,1.2,0.3,2.5,0,3.7C19,43,19,41.8,19.1,40.6z"/>
		<path class="st0" d="M60.7,26.3c-0.5-0.4-0.7-1-0.6-1.7C60.6,25.1,60.7,25.7,60.7,26.3z"/>
		<path class="st0" d="M25.8,29.9c0.2,0.4,0,0.9,0.2,1.3c0,0.4,0,0.8,0.1,1.3C25.5,31.6,25.6,30.8,25.8,29.9z"/>
		<path class="st0" d="M19.6,30.8c0,1,0,1.9,0,3c-0.3-0.2-0.1-0.5-0.2-0.6c0-0.8,0-1.6,0.1-2.3C19.5,30.7,19.5,30.7,19.6,30.8z"/>
		<path class="st0" d="M14.1,20.1c-0.3-0.8-0.5-1.5,0.2-2.2C14.2,18.6,14,19.3,14.1,20.1z"/>
		<path class="st0" d="M14.2,30.4c0-0.8,0-1.6,0-2.4c0-0.1,0.1-0.1,0.1,0c0,0.8,0,1.6,0.1,2.4c0,0-0.1,0-0.1,0.1
			C14.3,30.5,14.3,30.4,14.2,30.4z"/>
		<path class="st0" d="M20.3,18.1c0.1,0.1,0.3,0.2,0.4,0.4c0.5,0.4,0.2,0.7,0,1.1c0,0.1-0.1,0.2-0.1,0.2c0,0-0.1-0.1-0.1-0.1
			C20.5,19.1,20.4,18.6,20.3,18.1z"/>
		<path class="st0" d="M14.4,40.4c-0.3-0.7-0.1-1.4-0.1-2.1c0,0,0.1,0,0.1,0c0,0.1,0.1,0.1,0.1,0.2C14.4,39,14.4,39.7,14.4,40.4z"/>
		<path class="st0" d="M20,22.9c0,0.1,0.1,0.1,0.1,0.2c0,0.7,0,1.4,0,2c-0.2-0.1-0.2-0.4-0.2-0.6C19.9,23.9,20,23.4,20,22.9z"/>
		<path class="st0" d="M14.4,28L14.4,28l-0.1,0c0.1-0.7-0.2-1.5,0.1-2.2C14.4,26.5,14.4,27.3,14.4,28z"/>
		<path class="st0" d="M14.2,25.1c-0.5-0.5-0.5-1-0.2-1.6C14.1,24,14.3,24.5,14.2,25.1z"/>
		<path class="st0" d="M26,22.7c0.4,0.6,0.1,1.3,0,2C26,24,26,23.3,26,22.7L26,22.7z"/>
		<path class="st0" d="M42.7,21c-0.3,0-0.6,0.4-0.9,0.1c-0.1-0.1,0-0.3,0.1-0.4C42.2,20.7,42.5,20.8,42.7,21z"/>
		<path class="st0" d="M24.1,18.4c0,0.1,0,0.2,0,0.2c-0.5,0-1-0.1-1.5-0.3c0,0,0-0.1,0-0.1c0,0,0,0,0.1-0.1
			C23.2,18.3,23.7,18.4,24.1,18.4z"/>
		<path class="st0" d="M64.2,26.2c0.3,0.6,0.3,1.2,0,1.8C64.2,27.4,64.2,26.8,64.2,26.2z"/>
		<path class="st0" d="M13.7,22.1c-0.2-0.5-0.7-1.2,0.3-1.5C13.5,21,13.7,21.6,13.7,22.1z"/>
		<path class="st0" d="M44.1,40.7c-0.3-0.5-0.1-1.1-0.1-1.6c0,0,0.1,0,0.1,0c0,0,0.1,0,0.1,0C44.1,39.6,44.1,40.2,44.1,40.7z"/>
		<path class="st0" d="M43.9,43.1L43.9,43.1l-0.1,0c0-0.5-0.1-1,0-1.5c0.1-0.3,0.1,0.1,0.2,0.1C43.9,42.2,43.9,42.7,43.9,43.1z"/>
		<path class="st0" d="M30.4,18.1c-0.1,0.3-0.2,0.6-0.4,0.9C29.3,18.4,30.3,18.4,30.4,18.1z"/>
		<path class="st0" d="M14.2,42.9c-0.3-0.5-0.1-0.9-0.1-1.4c0,0,0.1,0,0.1,0c0,0.1,0.1,0.1,0.1,0.2C14.2,42.1,14.2,42.5,14.2,42.9z"
			/>
		<path class="st0" d="M26.5,42.9c-0.3-0.5-0.2-1.1,0-1.6C26.5,41.8,26.5,42.4,26.5,42.9z"/>
		<path class="st0" d="M14.6,32.1L14.6,32.1l-0.2,0c0-0.1,0-0.3,0-0.4c-0.1-0.4-0.1-0.8,0-1.3l0.1,0C14.6,30.9,14.6,31.5,14.6,32.1z
			"/>
		<path class="st0" d="M55.5,39.8c-0.3-0.4-0.1-0.9-0.1-1.3c0,0,0,0,0.1,0c0,0,0.1,0,0.1,0c0.1,0.4,0.1,0.7,0,1.1
			C55.5,39.7,55.5,39.7,55.5,39.8z"/>
		<path class="st0" d="M26.4,36.1c-0.1-0.1-0.1-0.1-0.2-0.2c0.1-0.4-0.1-0.9,0.1-1.3C26.4,35.1,26.4,35.6,26.4,36.1z"/>
		<path class="st0" d="M19.6,28c0.3,0.5,0.1,1,0.2,1.5c-0.1,0-0.1,0-0.2,0C19.6,29,19.6,28.5,19.6,28z"/>
		<path class="st0" d="M29.8,42.8c0.2,0.5,0.4,0.9-0.2,1.3C29.6,43.6,29.7,43.2,29.8,42.8z"/>
		<path class="st0" d="M19.6,30.8L19.6,30.8l-0.1,0c0-0.4-0.1-0.9,0.1-1.3C19.6,29.9,19.6,30.3,19.6,30.8z"/>
		<path class="st0" d="M50.5,24.9c-0.1,0-0.1,0-0.2,0c-0.1-0.2-0.1-0.5-0.2-0.7c0.1-0.1,0.1-0.1,0.2-0.2
			C50.4,24.3,50.5,24.6,50.5,24.9z"/>
		<path class="st0" d="M53.1,23.2c-0.2-0.1-0.4-0.2-0.6-0.3C52.8,22.7,53.2,22.6,53.1,23.2z"/>
		<path class="st0" d="M26.2,39.8c0,0,0.1,0,0.1,0c0,0.3,0,0.6,0.1,0.9C26,40.5,26.3,40.1,26.2,39.8z"/>
		<path class="st0" d="M55.5,39.6c0-0.4,0-0.7,0-1.1c0.1,0,0.1,0,0.2-0.1C55.7,38.9,55.8,39.3,55.5,39.6z"/>
		<path class="st0" d="M26.2,33.9c-0.3-0.3-0.3-0.6-0.1-0.9C26.2,33.3,26.2,33.6,26.2,33.9z"/>
		<path class="st0" d="M54.6,25.3c-0.2-0.1-0.2-0.4-0.2-0.6C55.2,24.6,54.3,25.1,54.6,25.3z"/>
		<path class="st0" d="M3.3,20.6c0.1-0.5,0.1-1,0.2-1.5c0.1-0.1,0.1-0.1,0.2,0c0,1,0,2-0.2,2.9c-0.1,0.5,0,1.1,0.1,1.6
			c0.1,0.4,0.4,1-0.3,1.3c-0.2-0.6-0.3-1.2-0.2-1.9C3.4,22.4,3.1,21.5,3.3,20.6z"/>
		<path class="st0" d="M3,30c-0.3-0.7-0.2-1.3-0.1-2c0.1-0.5,0.2-1.1,0-1.6c-0.1-0.2-0.3-0.5-0.3-0.8c0-0.4,0.1-0.6,0.5-0.5
			c0.2,0.2,0.1,0.5,0.1,0.8c-0.1,1.1,0.1,2.3-0.1,3.4C3.1,29.5,3,29.8,3,30z"/>
		<path class="st0" d="M3.2,29.3c0-1.2,0-2.3,0.1-3.5c0-0.1,0.1-0.1,0.2,0c0,1.1,0,2.3,0,3.4c0,0,0,0.1,0,0.1
			C3.3,29.3,3.2,29.3,3.2,29.3z"/>
		<path class="st0" d="M2.4,42c0-0.9,0-1.8,0.1-2.7c0.4,0.1,0.2,0.3,0.1,0.5c0,0.9,0,1.8,0,2.7c0,0-0.1,0-0.1,0
			C2.5,42.4,2.4,42.2,2.4,42z"/>
		<path class="st0" d="M3,33.5C3,32.7,3,31.8,3,31c0.3,1,0.1,2.1,0.2,3.2C2.9,33.9,3,33.7,3,33.5z"/>
		<path class="st0" d="M2.6,39.8c0-0.2,0-0.4-0.1-0.5c0.1-0.7,0.1-1.4,0.2-2C2.9,38.1,2.9,39,2.6,39.8z"/>
		<path class="st0" d="M3.4,25.8c-0.1,0-0.1,0-0.2,0c0-0.2,0-0.5-0.1-0.7c0-0.2,0-0.4,0-0.6C3,24,2.9,23.6,3.3,23.2
			c0,0.6,0,1.3,0,1.9C3.4,25.3,3.4,25.6,3.4,25.8z"/>
		<path class="st0" d="M3.7,16.9c0-0.4,0-0.8,0.1-1.2c0.3,0.5,0.1,0.9,0.1,1.4c0,0-0.1,0-0.1,0C3.8,17,3.7,17,3.7,16.9z"/>
		<path class="st0" d="M3.7,19.2c-0.1,0-0.1,0-0.2,0c0-0.5,0-1,0-1.5C3.9,18.2,3.7,18.7,3.7,19.2z"/>
		<path class="st0" d="M14.4,30.4c0,0.4,0,0.9,0,1.3c-0.3-0.4-0.1-0.9-0.2-1.3C14.3,30.4,14.3,30.4,14.4,30.4z"/>
		<path class="st0" d="M3.3,23.2c-0.1,0.4-0.1,0.9-0.2,1.3c-0.2-0.2-0.4-0.4-0.3-0.6c0.5-1,0-2.2,0.5-3.2
			C3.3,21.5,3.3,22.3,3.3,23.2z"/>
		<path class="st0" d="M30.8,35.4c-0.1-0.9-0.2-1.7-0.2-2.6c0-0.2,0.2-0.3,0.4-0.3c0,2.6,0,5.1,0,7.5c-0.3-0.5-0.4-0.8-0.3-1.6
			C30.9,37.3,30.6,36.3,30.8,35.4z"/>
		<path class="st0" d="M31.2,31c0-1.5,0-2.9,0-4.4c0-0.9,0-1.8,0-2.7c0,0,0.1,0,0.1,0c0,2.8,0,5.6,0,8.4c0,0-0.1,0-0.1,0
			C31.2,31.8,31.2,31.4,31.2,31z"/>
		<path class="st0" d="M30.4,36.1c0-0.1,0-0.3-0.2-0.4c0-0.4,0-0.8,0-1.4c0.3,0.3,0,0.8,0.4,1C30.6,35.6,30.7,35.9,30.4,36.1z"/>
		<path class="st0" d="M30.3,38.3c0.1-0.5-0.2-1,0.2-1.5C30.4,37.3,30.6,37.9,30.3,38.3z"/>
		<path class="st0" d="M20.7,19.5c-0.1-0.4,0.3-0.7,0-1.1c0-0.1,0-0.3,0.2-0.2c0.5,0.4,0.2,1,0.1,1.5C20.9,19.7,20.8,19.6,20.7,19.5
			z"/>
		<path class="st0" d="M25.5,26.5c0,0,0.1,0,0.1,0c0,0.5,0,1,0,1.5c-0.1,0.1-0.1,0.1-0.2,0C25.5,27.5,25.5,27,25.5,26.5z"/>
		<path class="st0" d="M25.5,28c0.1,0,0.1,0,0.2,0c0,0.5,0,1,0,1.5C25.3,29,25.6,28.5,25.5,28z"/>
		<path class="st0" d="M54.2,26.5c0.3,1.5,0.3,3,0,4.5c-0.1,0.5-0.3,0.9,0,1.4c-0.7-0.3-0.5-1-0.4-1.3C54.2,29.6,54,28.1,54.2,26.5
			L54.2,26.5z"/>
		<path class="st0" d="M54.2,26.5c-0.5-0.5-0.5-1.1-0.6-1.7c0-0.2,0-0.2,0.1-0.3c0.1,0,0.2,0.1,0.3,0.2
			C54.2,25.3,54.3,25.9,54.2,26.5L54.2,26.5z"/>
		<path class="st0" d="M55.1,33c0.5,0.7,0.4,1.6,0.5,2.4c0,0.1-0.1,0.1-0.1,0C55.2,34.6,55.2,33.8,55.1,33z"/>
		<path class="st0" d="M55.3,40.8c0,0.5,0,1.1-0.1,1.6c-0.3-0.6-0.1-1.2-0.1-1.8c0,0,0.1,0,0.1,0C55.3,40.6,55.3,40.7,55.3,40.8z"/>
		<path class="st0" d="M55.5,35.4c0,0,0.1,0,0.1,0c0,0.7,0,1.3,0,2C55.3,36.7,55.6,36.1,55.5,35.4z"/>
		<g>
			<path class="st0" d="M71.6,33v2.6c1.5-2.5,3.1-2.6,5.1-2.6h4.1c2.3,0,5-0.3,6.7,3.2c1,2,1,9.3,0,11.2c-1.7,3.5-5.8,3.1-7.6,3.1
				h-4.5c-1.9,0-2.9-0.5-3.9-2.3v8.6h-2.5V33H71.6z M77.8,48h2.7c1.4,0,3.9,0.3,4.9-2c0.6-1.2,0.7-7.2,0-8.5c-1.2-2.3-3.7-2-4.9-2
				h-3.1c-0.8,0-3.8-0.3-5.1,1.9c-0.8,1.4-0.9,6.3-0.5,7.7c0.3,1.1,0.9,2,2,2.5C74.8,48,76.4,48,77.8,48z"/>
			<path class="st0" d="M103.9,41.2c0-0.9,0.3-4.1-1.5-5.2c-1.4-0.8-6.6-0.8-8,0.2c-1.8,1.3-1.6,4.2-1.6,6.1v8.1h-2.5V33h2.4v2.8
				c2-3.3,6.5-2.7,7.9-2.7c1.3,0,3.8,0.3,4.9,2.5c0.7,1.4,0.6,4.5,0.6,5.6H103.9z"/>
			<path class="st0" d="M128,46.4c-0.7,2.2-2.4,4.2-5.3,4.2h-8.6c-3,0-4.7-2-5.3-4.2c-0.2-0.7-0.3-2-0.4-3.6c0,0,0-2.1,0-2.1
				c0-1.5,0.1-2.8,0.4-3.6c0.7-2.2,2.4-4.2,5.3-4.2h8.6c3,0,4.7,2,5.3,4.2c0.2,0.7,0.4,2,0.4,3.6v2.1
				C128.4,44.4,128.3,45.6,128,46.4z M125.6,37.8c-0.6-1.9-1.8-2.4-3.5-2.4h-7.3c-1.7,0-3,0.5-3.5,2.4c-0.2,0.5-0.3,1.6-0.3,2.9v2.1
				c0,1.3,0.1,2.4,0.3,2.9c0.6,1.9,1.8,2.4,3.5,2.4h7.3c1.7,0,3-0.5,3.5-2.4c0.2-0.5,0.3-1.6,0.3-2.9v-2.1
				C125.8,39.4,125.7,38.3,125.6,37.8z"/>
			<path class="st0" d="M147.2,50.5v-2.6c-1.5,2.5-3.1,2.6-5.1,2.6H138c-2.3,0-5,0.2-6.7-3.2c-1-2-1-9.3,0-11.2
				c1.7-3.5,5.8-3.1,7.6-3.1h4.5c1.9,0,2.9,0.5,3.9,2.3v-10h2.5v25.2H147.2z M141,35.5h-2.7c-1.4,0-3.9-0.3-4.9,2
				c-0.6,1.2-0.7,7.2,0,8.5c1.2,2.3,3.7,2,4.9,2h3.1c0.8,0,3.8,0.3,5.1-1.9c0.8-1.4,0.9-6.3,0.5-7.7c-0.3-1.1-0.9-2-2-2.5
				C144,35.5,142.4,35.5,141,35.5z"/>
			<path class="st0" d="M154.5,42.7c0,1.3,0,2.9,1,4.1c1.2,1.4,2.9,1.3,3.7,1.3h4.8c2.7,0,4.3,0.3,4.9-3.1h2.5
				c-0.2,5-2.7,5.5-6.6,5.5h-4.2c-2.3,0-6,0.3-7.7-3.2c-1.1-2.3-1.2-8.8-0.1-11.1c1.7-3.4,4.9-3.2,7.2-3.2h3.3
				c0.9,0,5.4-0.3,7.2,3.1c0.8,1.5,0.9,4.6,0.9,6.6H154.5z M156,36.2c-1.5,1-1.6,2.8-1.6,4.1h14.2c0-1.5,0.2-2.8-1.4-4
				C165.7,35.3,157.6,35.2,156,36.2z"/>
			<path class="st0" d="M175.9,25.3v25.2h-2.5V25.3H175.9z"/>
			<path class="st0" d="M194.2,39.4c-0.3-4.4-2.6-4-5.9-4H187c-3.5,0-4.9-0.3-6,2c-0.7,1.2-0.7,7-0.1,8.2c0.7,1.6,2.3,2.4,3.6,2.4h4
				c2.8,0,4.6-0.3,5.4-1.5c0.6-0.8,0.7-1.5,0.6-2.7h2.4c0,1.4,0,3.4-1.3,4.9c-1.3,1.5-3.7,1.8-5.3,1.8h-4.2c-2.2,0-5.5,0.3-7.2-3.2
				c-1-2.1-1-9.2,0.1-11.4c1.7-3.3,4.5-3,6.3-3h4.6c1.8,0,4.6,0.1,6,2.7c0.6,1,0.7,2.2,0.7,3.8H194.2z"/>
			<path class="st0" d="M215.1,50.5v-1.8c-1.4,1.9-2.7,1.8-4.3,1.8h-5.6c-2.3,0-5,0.3-6.1-2c-0.5-1-0.7-5,0-6.3c1.2-2.3,3.7-2,6.3-2
				h5.3c1.5,0,3.2,0.2,4.4,1.8c0-2.5,0.1-4.4-0.8-5.5c-0.9-1.2-2.7-1.1-5-1.1h-3c-2.1,0-3.4-0.2-4.3,1.3c-0.2,0.4-0.2,1.6-0.2,1.6
				h-2.5c0-1.3,0-2.8,1-3.9c1.2-1.4,2.7-1.5,5.1-1.5h3.8c2.8,0,5.4-0.1,7,1.9c1.4,1.7,1.3,3.9,1.3,7.1v8.5H215.1z M201.4,47
				c0.8,1.5,2.8,1.4,5.1,1.4h3c0.9-0.1,4.4,0,5.3-1.6c0.3-0.6,0.2-2.2,0-2.8c-0.9-1.9-2.2-1.7-5.4-1.7h-3.3c-2.5,0-2.9,0.1-3.2,0.2
				c-0.7,0.2-1.1,0.5-1.4,1.1C201,44.5,201.1,46.4,201.4,47z"/>
		</g>
	</g>
</g>
</svg>
