<svg width="15" height="16" viewBox="0 0 15 16" fill="none" xmlns="http://www.w3.org/2000/svg">
<path d="M12.6562 1.79688H2.34375C1.97079 1.79688 1.6131 1.94503 1.34938 2.20876C1.08566 2.47248 0.9375 2.83016 0.9375 3.20312L0.9375 13.5156C0.9375 13.8886 1.08566 14.2463 1.34938 14.51C1.6131 14.7737 1.97079 14.9219 2.34375 14.9219H6.36475V10.4597H4.51904V8.35938H6.36475V6.75859C6.36475 4.93779 7.44873 3.93203 9.10898 3.93203C9.9041 3.93203 10.7355 4.07383 10.7355 4.07383V5.86094H9.81943C8.9168 5.86094 8.63525 6.42109 8.63525 6.99561V8.35938H10.6503L10.328 10.4597H8.63525V14.9219H12.6562C13.0292 14.9219 13.3869 14.7737 13.6506 14.51C13.9143 14.2463 14.0625 13.8886 14.0625 13.5156V3.20312C14.0625 2.83016 13.9143 2.47248 13.6506 2.20876C13.3869 1.94503 13.0292 1.79688 12.6562 1.79688Z" fill="white"/>
</svg>
