<svg width="15" height="21" viewBox="0 0 15 21" fill="none" xmlns="http://www.w3.org/2000/svg">
<path d="M6.71875 20.0938C1.01562 11.8906 0 11.0312 0 7.98438C0 3.84375 3.32031 0.484375 7.5 0.484375C11.6406 0.484375 15 3.84375 15 7.98438C15 11.0312 13.9453 11.8906 8.24219 20.0938C7.89062 20.6406 7.07031 20.6406 6.71875 20.0938ZM7.5 11.1094C9.21875 11.1094 10.625 9.74219 10.625 7.98438C10.625 6.26562 9.21875 4.85938 7.5 4.85938C5.74219 4.85938 4.375 6.26562 4.375 7.98438C4.375 9.74219 5.74219 11.1094 7.5 11.1094Z" fill="#3b82f6"/>
</svg>
