<svg width="21" height="21" viewBox="0 0 21 21" fill="none" xmlns="http://www.w3.org/2000/svg">
<path d="M20.2578 1.46094L16.1953 0.523438C15.7656 0.40625 15.2969 0.640625 15.1016 1.07031L13.2266 5.44531C13.0703 5.83594 13.1875 6.26562 13.5 6.53906L15.8828 8.49219C14.4766 11.4609 12.0156 13.9609 8.96875 15.4062L7.01562 13.0234C6.74219 12.7109 6.3125 12.5938 5.92188 12.75L1.54688 14.625C1.11719 14.8203 0.921875 15.2891 1 15.7188L1.9375 19.7812C2.05469 20.2109 2.40625 20.4844 2.875 20.4844C12.875 20.4844 21 12.3984 21 2.35938C21 1.92969 20.6875 1.57812 20.2578 1.46094Z" fill="#3b82f6"/>
</svg>
